<?xml version="1.0" standalone="no"?>
<!DOCTYPE svg PUBLIC "-//W3C//DTD SVG 20010904//EN"
 "http://www.w3.org/TR/2001/REC-SVG-20010904/DTD/svg10.dtd">
<svg version="1.0" xmlns="http://www.w3.org/2000/svg"
 width="700.000000pt" height="700.000000pt" viewBox="0 0 700.000000 700.000000"
 preserveAspectRatio="xMidYMid meet">
<metadata>
Created by potrace 1.14, written by Peter Selinger 2001-2017
</metadata>
<g transform="translate(0.000000,700.000000) scale(0.100000,-0.100000)"
fill="#000000" stroke="none">
<path d="M2535 6283 c-143 -29 -261 -92 -365 -194 -213 -210 -266 -515 -135
-784 64 -133 196 -263 322 -317 l53 -23 0 -60 c1 -63 1 -1023 0 -1039 0 -9
-31 32 -125 164 -11 16 -67 92 -125 170 -201 272 -250 341 -250 353 0 7 6 21
13 32 25 37 58 172 62 250 13 276 -138 528 -390 651 -74 36 -117 50 -215 69
-14 3 -56 6 -95 6 -190 3 -371 -69 -504 -201 -79 -78 -95 -98 -131 -164 -169
-307 -72 -656 240 -864 67 -44 167 -94 237 -116 50 -17 51 -18 63 -69 6 -29
14 -63 17 -77 3 -14 7 -32 9 -40 6 -30 17 -85 20 -95 2 -9 16 -78 29 -145 3
-14 8 -38 12 -55 9 -38 8 -34 16 -75 4 -19 12 -53 17 -75 11 -45 89 -416 96
-455 3 -14 7 -33 10 -42 3 -10 7 -30 10 -45 2 -16 7 -39 10 -53 3 -14 8 -34
10 -45 2 -11 6 -29 8 -40 3 -11 21 -99 41 -195 33 -158 42 -184 86 -262 27
-48 49 -89 49 -92 0 -2 24 -46 53 -97 119 -209 236 -436 240 -464 8 -50 47
-268 52 -295 5 -27 19 -103 35 -202 14 -82 19 -108 25 -138 3 -14 8 -38 10
-55 22 -125 28 -152 41 -176 17 -34 55 -64 111 -89 46 -20 220 -65 288 -75 23
-3 50 -7 62 -9 83 -16 305 -36 578 -51 103 -6 643 -6 755 0 166 8 288 16 311
20 13 2 60 6 104 10 44 4 82 8 85 10 3 1 34 6 70 9 98 10 287 54 355 83 33 14
76 42 96 63 35 38 36 42 73 252 21 117 40 224 42 238 3 14 7 36 9 50 3 14 8
39 10 55 3 17 8 41 10 55 3 14 7 43 11 65 3 22 9 56 14 75 4 19 11 58 15 85 7
54 9 57 235 469 141 257 163 306 184 411 14 69 46 223 112 530 41 193 89 415
105 495 17 80 33 154 35 165 3 11 7 31 10 45 3 14 11 53 19 86 8 34 17 74 19
90 3 15 10 51 16 79 l10 51 86 31 c236 89 418 258 492 456 77 206 21 462 -139
640 -197 218 -495 294 -772 198 -109 -38 -179 -83 -268 -171 -73 -72 -94 -101
-133 -180 -63 -131 -86 -286 -62 -416 9 -46 44 -155 60 -183 12 -22 9 -29 -48
-106 -34 -46 -104 -141 -155 -211 -52 -71 -132 -179 -177 -240 -45 -60 -88
-120 -95 -132 -8 -12 -16 -22 -19 -22 -4 0 -4 798 0 1067 0 29 6 36 53 59 83
43 138 82 202 149 255 262 255 679 1 939 -103 104 -196 160 -332 197 -363 99
-751 -108 -864 -462 -55 -170 -38 -358 45 -515 38 -72 93 -146 132 -177 13
-10 23 -26 23 -35 0 -9 -18 -69 -41 -132 -22 -63 -46 -133 -53 -155 -7 -22
-48 -139 -90 -260 -96 -273 -156 -446 -162 -464 -3 -8 -7 -12 -9 -9 -5 5 -72
193 -171 478 -73 214 -170 490 -182 520 -8 22 -5 29 22 55 104 97 187 261 202
397 11 100 10 120 -2 198 -53 330 -337 574 -679 584 -50 2 -121 -4 -160 -11z"/>
</g>
</svg>
